<svg width="512" height="512" viewBox="0 0 512 512" fill="none" xmlns="http://www.w3.org/2000/svg">
<path d="M280.837 163.282L172.502 182.436C169.964 182.885 168.236 185.114 168.643 187.415L182.196 264.072C182.603 266.373 184.991 267.874 187.529 267.425L295.863 248.271C298.402 247.822 300.13 245.593 299.723 243.293L286.169 166.635C285.763 164.335 283.375 162.833 280.837 163.282Z" fill="white"/>
<path d="M107.006 30.55V47.91H477.406V30.55C477.406 29.4891 476.985 28.4717 476.234 27.7216C475.484 26.9714 474.467 26.55 473.406 26.55H111.006C109.945 26.55 108.928 26.9714 108.178 27.7216C107.427 28.4717 107.006 29.4891 107.006 30.55Z" fill="white"/>
<path d="M119.426 245.991C119.426 245.991 110.426 259.311 116.546 279.111C116.546 279.111 107.546 339.591 103.226 352.551C98.906 365.511 73.946 436.071 73.946 436.071L119.426 448.071L149.846 347.031L146.906 448.071H193.226C193.226 448.071 194.426 295.73 182.906 263.421L171.701 250.921L170.067 252.471L164.166 245.991H119.426Z" fill="white"/>
<path d="M157.946 128.811C157.946 128.811 173.246 129.351 169.466 137.991C165.686 146.631 155.786 141.051 155.786 141.051C155.786 141.051 157.766 156.171 149.486 149.871C141.206 143.571 143.546 159.231 150.926 158.511C150.926 158.511 157.946 173.271 152.906 178.671C147.866 184.071 140.486 179.391 138.686 173.811C138.686 173.811 128.246 176.691 127.886 164.811C127.526 152.931 123.386 151.671 129.326 147.351C135.266 143.031 139.586 122.511 157.946 128.811Z" fill="black"/>
<path d="M166.82 179.892C162.388 179.892 154.538 176.319 154.206 176.168C154.146 176.141 154.092 176.102 154.048 176.054C154.003 176.006 153.968 175.949 153.945 175.888C153.899 175.763 153.904 175.626 153.959 175.505C154.014 175.384 154.115 175.291 154.239 175.244C154.364 175.198 154.501 175.203 154.622 175.258C154.702 175.295 162.606 178.892 166.82 178.892C167.347 178.892 167.473 178.792 167.474 178.791C167.449 178.207 164.579 175.867 161.162 173.733C158.122 172.82 159.558 166.923 159.622 166.67C159.648 166.566 159.707 166.473 159.79 166.404C159.873 166.336 159.976 166.297 160.083 166.292C165.635 166.037 169.502 164.162 171.576 160.718C176.67 152.26 169.55 136.945 169.478 136.792C169.421 136.672 169.414 136.535 169.459 136.41C169.504 136.285 169.596 136.183 169.716 136.126C169.836 136.069 169.973 136.062 170.098 136.107C170.223 136.152 170.325 136.244 170.382 136.364C170.687 137.012 177.803 152.314 172.434 161.232C170.225 164.9 166.214 166.931 160.509 167.271C160.157 168.936 159.806 172.338 161.495 172.788C161.543 172.801 161.588 172.821 161.63 172.847C164.347 174.538 168.84 177.602 168.407 179.114C168.185 179.892 167.157 179.892 166.82 179.892Z" fill="black"/>
<path d="M170.066 252.972H170.048C169.982 252.969 169.916 252.954 169.856 252.926C169.796 252.898 169.742 252.858 169.697 252.809L163.945 246.491H113.306C113.232 246.491 113.16 246.474 113.093 246.443C113.027 246.411 112.968 246.366 112.921 246.309C112.874 246.252 112.84 246.186 112.822 246.114C112.804 246.043 112.802 245.968 112.816 245.896C121.019 203.808 138.98 175.801 139.161 175.522C139.233 175.411 139.347 175.333 139.477 175.305C139.606 175.278 139.742 175.303 139.853 175.375C139.964 175.447 140.042 175.561 140.07 175.691C140.097 175.82 140.072 175.956 140 176.067C139.82 176.343 122.13 203.937 113.914 245.491H164.166C164.236 245.491 164.304 245.506 164.368 245.534C164.432 245.562 164.489 245.603 164.536 245.654L170.093 251.758L192.535 230.478L178.628 214.461C178.565 214.389 178.525 214.3 178.511 214.205C178.497 214.111 178.511 214.014 178.55 213.927C178.584 213.854 181.83 206.523 178.928 201.231C175.911 195.729 168.044 183.351 167.964 183.227C167.92 183.157 167.893 183.078 167.887 182.995C167.881 182.913 167.895 182.83 167.929 182.755C167.963 182.679 168.015 182.613 168.08 182.563C168.145 182.512 168.222 182.478 168.304 182.465L186.39 179.421L162.856 174.798C162.789 174.788 162.724 174.765 162.666 174.73C162.608 174.695 162.558 174.648 162.519 174.593C162.48 174.537 162.452 174.475 162.438 174.408C162.423 174.342 162.423 174.273 162.436 174.207C162.449 174.14 162.475 174.077 162.513 174.021C162.552 173.965 162.601 173.917 162.658 173.881C162.716 173.845 162.78 173.82 162.847 173.809C162.914 173.799 162.982 173.801 163.048 173.818L189.273 178.968C189.388 178.99 189.492 179.052 189.566 179.143C189.639 179.234 189.679 179.348 189.678 179.465C189.676 179.583 189.633 179.696 189.557 179.784C189.481 179.873 189.376 179.933 189.26 179.952L169.211 183.326C170.867 185.942 177.168 195.943 179.805 200.751C182.637 205.917 180.203 212.548 179.588 214.041L193.604 230.184C193.688 230.281 193.732 230.408 193.725 230.536C193.719 230.665 193.663 230.786 193.57 230.875L170.41 252.835C170.317 252.923 170.194 252.972 170.066 252.972Z" fill="black"/>
<path d="M164.167 246.491C164.085 246.491 164.005 246.472 163.932 246.433C163.86 246.395 163.798 246.34 163.752 246.272C160.172 240.986 156.904 235.495 153.963 229.829C149.823 221.279 149.363 198.544 149.346 197.58C149.344 197.448 149.394 197.32 149.486 197.224C149.578 197.129 149.704 197.074 149.836 197.071H149.846C149.977 197.071 150.103 197.123 150.197 197.215C150.29 197.307 150.344 197.432 150.346 197.563C150.351 197.796 150.819 221.04 154.864 229.393C157.783 235.016 161.027 240.464 164.58 245.71C164.631 245.785 164.661 245.873 164.666 245.964C164.671 246.054 164.651 246.145 164.608 246.225C164.566 246.305 164.502 246.373 164.424 246.42C164.346 246.466 164.257 246.491 164.166 246.491H164.167ZM179.006 214.633C178.912 214.633 178.821 214.607 178.741 214.557C178.662 214.508 178.598 214.437 178.557 214.353L168.477 193.832C168.448 193.773 168.431 193.709 168.427 193.643C168.423 193.578 168.431 193.512 168.453 193.45C168.474 193.388 168.507 193.33 168.55 193.281C168.594 193.232 168.647 193.191 168.706 193.163C168.764 193.134 168.829 193.116 168.894 193.112C168.96 193.108 169.025 193.117 169.088 193.138C169.15 193.159 169.207 193.193 169.256 193.236C169.306 193.279 169.346 193.332 169.375 193.391L179.455 213.912C179.492 213.988 179.51 214.073 179.505 214.157C179.501 214.242 179.475 214.325 179.43 214.397C179.385 214.469 179.323 214.528 179.249 214.569C179.174 214.61 179.091 214.633 179.006 214.633ZM168.926 246.491C168.827 246.491 168.731 246.462 168.649 246.407C168.567 246.353 168.503 246.275 168.465 246.184C168.427 246.093 168.416 245.993 168.435 245.896C168.454 245.799 168.501 245.71 168.57 245.64L186.93 227.1C187.023 227.006 187.15 226.952 187.283 226.951C187.416 226.95 187.543 227.002 187.638 227.096C187.732 227.189 187.785 227.316 187.786 227.448C187.787 227.581 187.735 227.709 187.642 227.803L169.282 246.343C169.235 246.39 169.18 246.427 169.119 246.453C169.058 246.478 168.992 246.491 168.926 246.491ZM149.846 347.034L144.266 291.714L143.197 369.118L149.846 347.034ZM200.524 287.669C198.674 287.669 196.715 286.733 194.688 284.881C190.262 280.813 187.14 275.525 185.718 269.684C185.208 267.469 182.528 263.752 182.501 263.714C182.461 263.661 182.432 263.6 182.415 263.536C182.399 263.471 182.395 263.404 182.405 263.338C182.415 263.272 182.438 263.209 182.472 263.152C182.507 263.095 182.552 263.046 182.606 263.007C182.66 262.968 182.722 262.94 182.786 262.925C182.851 262.91 182.919 262.908 182.984 262.919C183.05 262.93 183.113 262.955 183.169 262.991C183.225 263.026 183.273 263.073 183.311 263.128C183.426 263.286 186.137 267.048 186.693 269.459C188.068 275.103 191.085 280.213 195.363 284.143C197.42 286.023 199.353 286.863 201.095 286.632C201.741 286.525 202.359 286.29 202.914 285.942C203.468 285.593 203.948 285.138 204.325 284.602C204.385 284.509 204.474 284.439 204.578 284.402C204.682 284.364 204.796 284.362 204.901 284.396C207.772 285.332 210.028 285.289 211.606 284.262C212.194 283.844 212.69 283.312 213.066 282.696C213.441 282.08 213.687 281.395 213.789 280.681C213.798 280.597 213.828 280.516 213.876 280.446C213.925 280.377 213.99 280.32 214.067 280.283C214.143 280.246 214.227 280.229 214.312 280.233C214.397 280.237 214.479 280.263 214.551 280.308C216.503 281.528 218.145 281.847 219.431 281.253C221.691 280.213 222.246 276.673 222.251 276.638C222.265 276.545 222.305 276.457 222.367 276.386C222.428 276.314 222.509 276.262 222.599 276.234C225.25 275.417 226.625 273.989 226.8 271.868C227.527 263.089 208.316 246.535 205.722 245.238C202.332 243.543 191.544 233.014 191.086 232.567C190.991 232.474 190.937 232.347 190.936 232.215C190.934 232.082 190.986 231.954 191.079 231.859C191.171 231.765 191.298 231.711 191.431 231.709C191.563 231.708 191.691 231.759 191.786 231.852C191.896 231.96 202.917 242.718 206.169 244.344C208.928 245.724 228.574 262.57 227.797 271.95C227.593 274.408 226.042 276.138 223.184 277.096C222.982 278.079 222.189 281.081 219.853 282.16C218.389 282.835 216.637 282.62 214.638 281.519C214.279 282.979 213.393 284.254 212.151 285.101C210.376 286.256 207.95 286.374 204.937 285.456C204.025 286.621 202.703 287.396 201.24 287.621C201.003 287.653 200.763 287.669 200.524 287.669Z" fill="black"/>
<path d="M222.747 277.21C222.663 277.21 222.58 277.189 222.506 277.149C222.432 277.109 222.37 277.051 222.324 276.98L215.484 266.24C215.413 266.128 215.389 265.992 215.418 265.863C215.447 265.733 215.526 265.621 215.637 265.549C215.749 265.478 215.885 265.454 216.015 265.483C216.144 265.512 216.257 265.591 216.328 265.703L223.168 276.443C223.216 276.519 223.243 276.606 223.246 276.695C223.249 276.784 223.227 276.873 223.184 276.951C223.141 277.03 223.078 277.095 223.001 277.141C222.924 277.187 222.836 277.211 222.747 277.211V277.21ZM214.287 281.231C214.206 281.231 214.126 281.212 214.054 281.174C213.983 281.137 213.921 281.082 213.875 281.016L207.395 271.626C207.321 271.517 207.293 271.383 207.317 271.253C207.341 271.123 207.416 271.008 207.524 270.933C207.633 270.858 207.767 270.829 207.897 270.853C208.027 270.876 208.142 270.95 208.218 271.058L214.698 280.448C214.773 280.557 214.802 280.692 214.778 280.822C214.754 280.952 214.679 281.068 214.57 281.143C214.487 281.201 214.388 281.231 214.287 281.231ZM204.747 285.371C204.665 285.371 204.585 285.352 204.513 285.314C204.441 285.276 204.379 285.22 204.333 285.153L199.653 278.313C199.616 278.259 199.59 278.198 199.577 278.133C199.563 278.069 199.562 278.003 199.575 277.938C199.587 277.874 199.611 277.812 199.647 277.757C199.683 277.702 199.73 277.655 199.784 277.618C199.838 277.581 199.899 277.555 199.964 277.542C200.028 277.528 200.094 277.527 200.159 277.54C200.223 277.552 200.285 277.576 200.34 277.612C200.395 277.648 200.442 277.695 200.479 277.749L205.159 284.589C205.21 284.664 205.24 284.752 205.245 284.842C205.25 284.933 205.231 285.024 205.188 285.104C205.146 285.184 205.083 285.252 205.005 285.299C204.927 285.346 204.838 285.371 204.747 285.371ZM148.887 279.318C147.039 279.318 144.953 279.158 143.014 279.008C141.138 278.8 139.25 278.734 137.364 278.81C134.298 279.008 131.222 279.008 128.156 278.812C128.09 278.808 128.026 278.791 127.967 278.762C127.908 278.734 127.855 278.693 127.812 278.644C127.768 278.595 127.735 278.538 127.713 278.476C127.692 278.413 127.683 278.348 127.687 278.282C127.697 278.15 127.757 278.028 127.856 277.94C127.955 277.852 128.084 277.807 128.216 277.813C131.224 278.003 134.241 278.004 137.249 277.815C139.198 277.731 141.15 277.797 143.089 278.012C146.442 278.27 150.241 278.559 152.292 277.992C152.356 277.97 152.424 277.962 152.492 277.968C152.56 277.973 152.625 277.992 152.685 278.024C152.745 278.056 152.798 278.1 152.841 278.153C152.883 278.205 152.915 278.266 152.933 278.332C152.951 278.397 152.956 278.466 152.947 278.533C152.938 278.6 152.915 278.665 152.88 278.723C152.845 278.781 152.799 278.832 152.744 278.871C152.689 278.911 152.626 278.939 152.56 278.954C151.356 279.231 150.122 279.354 148.887 279.318Z" fill="black"/>
<path d="M149.846 448.071V478.101C149.846 479.318 150.33 480.486 151.19 481.347C152.051 482.207 153.219 482.691 154.436 482.691H223.646V480.086C223.646 479.13 223.39 478.192 222.904 477.369C222.418 476.546 221.721 475.869 220.884 475.407L192.326 459.651V448.071H149.846ZM116.26 453.923L118.243 447.759L77.11 436.906L70.17 458.473C69.9853 459.047 69.9154 459.651 69.9643 460.252C70.0132 460.853 70.18 461.438 70.4552 461.975C70.7303 462.511 71.1084 462.988 71.5679 463.378C72.0274 463.768 72.5592 464.064 73.133 464.249L139.016 485.45L139.814 482.97C140.107 482.06 140.15 481.089 139.94 480.157C139.729 479.225 139.273 478.366 138.618 477.67L116.26 453.923Z" fill="#CACACA"/>
<path d="M168.232 155.278C167.409 155.238 166.605 155.018 165.876 154.636C165.818 154.606 165.766 154.564 165.723 154.514C165.681 154.464 165.649 154.406 165.629 154.343C165.609 154.281 165.602 154.215 165.607 154.149C165.613 154.084 165.631 154.02 165.661 153.961C165.692 153.903 165.733 153.851 165.783 153.809C165.834 153.767 165.892 153.734 165.954 153.715C166.017 153.695 166.083 153.687 166.148 153.693C166.214 153.698 166.278 153.717 166.336 153.747C166.983 154.082 168.381 154.578 169.029 154.044C169.521 153.643 169.444 152.636 169.327 151.109C169.199 149.679 168.924 148.266 168.507 146.893C168.385 146.487 168.257 146.083 168.121 145.681C167.77 144.621 167.558 143.982 167.968 143.357C168.401 142.697 169.294 142.431 170.704 142.532C170.836 142.542 170.959 142.605 171.045 142.705C171.131 142.806 171.174 142.937 171.164 143.069C171.16 143.135 171.142 143.199 171.113 143.258C171.084 143.317 171.043 143.369 170.993 143.412C170.943 143.455 170.885 143.488 170.822 143.508C170.76 143.528 170.694 143.536 170.628 143.53C169.321 143.423 168.924 143.723 168.804 143.905C168.665 144.118 168.778 144.485 169.07 145.365C169.185 145.712 169.32 146.12 169.465 146.609C169.903 148.05 170.192 149.533 170.325 151.033C170.465 152.873 170.558 154.088 169.662 154.819C169.253 155.134 168.748 155.297 168.232 155.279V155.278ZM164.816 159.41C164.032 159.436 163.262 159.197 162.631 158.73C162.234 158.391 161.911 157.975 161.68 157.507C161.449 157.039 161.315 156.529 161.287 156.008C161.283 155.876 161.331 155.747 161.421 155.651C161.511 155.554 161.636 155.497 161.768 155.492C161.9 155.49 162.028 155.539 162.124 155.629C162.221 155.718 162.279 155.842 162.286 155.974C162.335 156.731 162.681 157.438 163.249 157.942C163.654 158.196 164.111 158.356 164.586 158.412C165.061 158.468 165.542 158.417 165.995 158.264C166.122 158.241 166.252 158.268 166.36 158.339C166.467 158.41 166.543 158.519 166.571 158.645C166.6 158.77 166.579 158.902 166.513 159.013C166.447 159.123 166.341 159.204 166.217 159.238C165.758 159.347 165.288 159.405 164.816 159.41ZM159.836 146.05C159.742 146.05 159.649 146.023 159.57 145.972C159.49 145.922 159.426 145.85 159.386 145.764C159.345 145.679 159.33 145.584 159.341 145.491C159.352 145.397 159.39 145.308 159.449 145.235C159.472 145.207 161.759 142.485 165.644 144.475C165.762 144.535 165.851 144.64 165.892 144.767C165.933 144.893 165.922 145.03 165.861 145.148C165.801 145.267 165.696 145.356 165.57 145.397C165.443 145.438 165.306 145.426 165.188 145.366C162.043 143.752 160.294 145.782 160.222 145.87C160.175 145.927 160.116 145.972 160.049 146.003C159.982 146.034 159.91 146.05 159.836 146.05Z" fill="black"/>
<path d="M164.283 150.303C164.773 150.22 165.073 149.577 164.954 148.867C164.834 148.156 164.34 147.647 163.849 147.729C163.359 147.812 163.059 148.455 163.178 149.165C163.298 149.876 163.792 150.385 164.283 150.303Z" fill="black"/>
<path d="M171.526 148.548C172.016 148.465 172.316 147.822 172.197 147.112C172.077 146.401 171.583 145.892 171.092 145.974C170.602 146.057 170.302 146.7 170.421 147.41C170.541 148.121 171.035 148.63 171.526 148.548Z" fill="black"/>
<path d="M224.13 194.112C223.897 194.111 223.664 194.083 223.437 194.028C222.726 193.858 222.049 193.569 221.434 193.174C220.44 192.503 219.75 191.468 219.514 190.293C218.96 191.009 218.268 191.608 217.479 192.053C217.063 192.267 216.608 192.396 216.142 192.433C216.024 192.45 215.907 192.466 215.793 192.486C215.432 192.607 215.046 192.629 214.674 192.55C214.302 192.471 213.958 192.294 213.677 192.037C213.201 191.67 212.769 191.249 212.391 190.782C211.72 189.701 211.363 188.454 211.359 187.182C211.114 184.26 211.233 181.318 211.713 178.425C211.729 178.329 211.758 178.193 211.794 178.029C212.171 176.287 212.058 175.863 211.956 175.766C211.676 175.791 210.208 176.068 208.913 176.312C207.803 176.558 206.68 176.745 205.55 176.873V176.875L205.492 176.874C205.433 176.875 205.374 176.871 205.315 176.861C205.017 176.844 204.724 176.829 204.436 176.816C202.362 176.865 200.304 176.449 198.411 175.6L198.008 175.394C196.954 174.89 195.94 174.308 194.973 173.652C193.447 172.559 191.897 170.141 193.232 168.19C194.855 165.82 197.886 166.647 199.892 167.197L200.51 167.372C201.148 167.576 201.801 167.727 202.464 167.825C203.369 167.931 204.278 167.987 205.189 167.992C205.431 167.995 205.689 168.005 205.957 168.016C207.253 168.067 208.726 168.125 209.615 167.436C210.04 167.093 210.441 166.722 210.817 166.326L211.227 165.916C211.945 165.217 212.738 164.6 213.591 164.074L213.979 163.827C215.297 162.979 217.102 161.823 218.768 162.572C219.06 162.718 219.341 162.887 219.606 163.077C220.476 163.659 220.938 163.886 221.22 163.593C221.4 163.379 221.547 163.139 221.655 162.881C221.74 162.697 221.835 162.517 221.939 162.343C222.304 161.787 222.781 161.312 223.339 160.949C223.906 160.587 224.55 160.362 225.22 160.292C225.889 160.221 226.566 160.308 227.196 160.544C227.567 160.719 227.915 160.94 228.231 161.202C228.659 161.522 229.451 162.113 229.701 161.942C229.777 161.848 229.839 161.743 229.886 161.632C229.943 161.51 230.009 161.392 230.084 161.279C230.247 161.059 230.428 160.853 230.624 160.663C230.72 160.567 230.814 160.469 230.904 160.368L231.034 160.218C231.438 159.641 232.025 159.217 232.699 159.013L232.851 158.978C233.535 158.747 234.273 158.726 234.969 158.917C235.593 159.176 236.166 159.543 236.662 160.001C236.906 160.235 237.119 160.5 237.295 160.788C237.412 160.963 237.63 161.288 237.726 161.312C237.726 161.312 237.788 161.31 237.93 161.196L238.156 161.015C238.557 160.588 239.042 160.248 239.58 160.017C240.118 159.785 240.697 159.666 241.283 159.668C242.051 159.757 242.785 160.034 243.421 160.473C244.057 160.913 244.575 161.503 244.929 162.19C245.532 163.401 248.135 171.379 248.058 174.278C248.012 176.01 246.659 184.928 245.827 186.442C245.655 186.872 245.372 187.249 245.007 187.534C244.641 187.818 244.206 188 243.747 188.061C242.371 188.149 241.144 186.595 240.464 185.612C240.423 185.749 240.385 185.886 240.35 186.024C240.292 186.279 240.212 186.529 240.112 186.77C239.806 187.483 239.441 188.169 239.022 188.822C238.207 189.858 237.166 190.695 235.98 191.27C235.374 191.666 234.678 191.902 233.957 191.957C233.235 192.012 232.511 191.883 231.853 191.583C231.102 191.191 230.498 190.565 230.133 189.801C229.797 190.545 229.333 191.224 228.762 191.808C227.914 192.678 226.876 193.339 225.729 193.74C225.222 193.959 224.68 194.085 224.129 194.112H224.13ZM219.777 188.364C219.804 188.364 219.831 188.366 219.857 188.371C219.966 188.389 220.066 188.442 220.141 188.522C220.217 188.602 220.263 188.705 220.274 188.815C220.444 190.56 220.999 191.71 221.972 192.332C222.493 192.666 223.065 192.91 223.666 193.056C224.253 193.158 224.857 193.068 225.39 192.801C226.399 192.447 227.312 191.864 228.058 191.097C228.923 190.128 229.54 188.964 229.858 187.704L229.868 187.674C229.91 187.551 229.999 187.449 230.116 187.39C230.233 187.331 230.367 187.32 230.492 187.36C230.616 187.399 230.72 187.486 230.782 187.601C230.843 187.716 230.857 187.851 230.821 187.976L230.814 187.998C230.768 188.539 230.882 189.081 231.142 189.557C231.402 190.033 231.796 190.423 232.275 190.677C232.799 190.909 233.374 191.004 233.944 190.951C234.515 190.898 235.063 190.7 235.535 190.375C236.573 189.879 237.485 189.153 238.201 188.252C238.586 187.648 238.921 187.013 239.203 186.354C239.279 186.165 239.339 185.971 239.383 185.772C239.458 185.194 239.731 184.66 240.156 184.262C240.263 184.189 240.395 184.161 240.522 184.184C240.65 184.206 240.764 184.277 240.84 184.382C240.882 184.441 240.942 184.529 241.016 184.641C241.416 185.243 242.624 187.063 243.669 187.063L243.706 187.062C244.14 187.044 244.559 186.672 244.951 185.96C245.591 184.797 247.006 176.205 247.058 174.251C247.13 171.55 244.599 163.771 244.034 162.636C243.754 162.097 243.347 161.634 242.846 161.29C242.346 160.945 241.769 160.729 241.165 160.66C240.255 160.715 239.402 161.121 238.785 161.791L238.555 161.978C238.423 162.098 238.268 162.188 238.098 162.244C237.929 162.3 237.75 162.319 237.573 162.301C237.049 162.22 236.738 161.754 236.463 161.344C236.333 161.129 236.177 160.929 236 160.751C235.59 160.372 235.117 160.066 234.603 159.847C234.094 159.746 233.568 159.782 233.078 159.951L232.921 159.987C232.459 160.153 232.063 160.463 231.791 160.872L231.657 161.027C231.554 161.144 231.447 161.254 231.337 161.364C231.179 161.516 231.033 161.68 230.901 161.855C230.856 161.926 230.816 162 230.782 162.076C230.674 162.341 230.501 162.575 230.28 162.756C229.439 163.357 228.437 162.606 227.633 162.003C227.387 161.801 227.121 161.625 226.839 161.478C226.362 161.303 225.851 161.239 225.345 161.288C224.839 161.338 224.351 161.501 223.917 161.766C223.469 162.051 223.085 162.427 222.79 162.868C222.704 163.013 222.626 163.163 222.555 163.316C222.404 163.67 222.196 163.998 221.941 164.286C221.026 165.24 219.836 164.436 219.049 163.907C218.829 163.749 218.597 163.607 218.356 163.484C217.186 162.955 215.707 163.904 214.52 164.668L214.123 164.922C213.33 165.41 212.594 165.983 211.926 166.631L211.526 167.031C211.119 167.458 210.685 167.858 210.226 168.228C209.05 169.137 207.313 169.069 205.918 169.015C205.659 169.005 205.41 168.995 205.176 168.992C204.229 168.986 203.283 168.928 202.343 168.817C201.627 168.715 200.922 168.553 200.233 168.333L199.637 168.164C197.688 167.631 195.277 166.971 194.057 168.754C193.114 170.134 194.394 172.007 195.555 172.84C196.481 173.465 197.453 174.021 198.461 174.502L198.867 174.709C200.634 175.493 202.553 175.871 204.485 175.817C204.853 175.835 205.227 175.854 205.611 175.877C205.635 175.878 205.659 175.882 205.682 175.887C206.178 175.812 207.575 175.547 208.727 175.33C210.477 175 211.559 174.798 211.827 174.774C211.99 174.752 212.155 174.771 212.309 174.829C212.462 174.887 212.599 174.982 212.707 175.106C213.257 175.731 213.04 176.997 212.771 178.241C212.74 178.387 212.713 178.507 212.699 178.591C212.232 181.4 212.117 184.256 212.355 187.094C212.351 188.175 212.636 189.238 213.182 190.171C213.513 190.575 213.889 190.94 214.304 191.258C214.79 191.65 214.917 191.626 215.618 191.502C215.744 191.48 215.873 191.461 216.002 191.443C216.339 191.42 216.668 191.334 216.973 191.19C218.009 190.624 218.833 189.736 219.321 188.66C219.36 188.572 219.424 188.497 219.505 188.445C219.586 188.392 219.681 188.364 219.777 188.364Z" fill="black"/>
<path d="M220.965 185.967C220.885 185.967 220.806 185.948 220.735 185.911C220.664 185.874 220.603 185.821 220.557 185.755C220.511 185.69 220.481 185.615 220.47 185.535C220.46 185.456 220.468 185.375 220.495 185.3L220.586 185.04C220.993 184.025 221.282 182.967 221.447 181.886C221.531 181.206 221.593 180.521 221.655 179.836C221.728 179.033 221.8 178.229 221.907 177.432C222.113 176.047 222.186 174.646 222.125 173.248C221.923 171.365 221.484 169.514 220.82 167.74C220.667 167.274 220.519 166.807 220.374 166.339C220.354 166.276 220.346 166.209 220.352 166.143C220.357 166.077 220.376 166.013 220.407 165.954C220.437 165.896 220.479 165.843 220.53 165.801C220.581 165.759 220.64 165.727 220.703 165.707C220.767 165.688 220.833 165.681 220.899 165.688C220.965 165.694 221.029 165.714 221.088 165.746C221.146 165.777 221.197 165.82 221.239 165.871C221.281 165.923 221.312 165.982 221.33 166.046C221.467 166.497 221.618 166.959 221.771 167.431C222.465 169.286 222.919 171.221 223.123 173.191C223.188 174.652 223.113 176.117 222.898 177.564C222.793 178.348 222.722 179.138 222.65 179.928C222.587 180.622 222.524 181.318 222.44 182.008C222.266 183.162 221.96 184.291 221.528 185.375L221.437 185.634C221.402 185.732 221.339 185.816 221.254 185.876C221.169 185.935 221.068 185.967 220.965 185.967ZM229.882 185.643C229.775 185.643 229.671 185.609 229.586 185.545C229.533 185.506 229.488 185.457 229.454 185.401C229.42 185.344 229.398 185.282 229.388 185.217C229.378 185.152 229.381 185.086 229.397 185.022C229.413 184.958 229.441 184.898 229.48 184.845C229.677 184.519 229.815 184.162 229.89 183.789C229.93 183.644 229.969 183.499 230.012 183.361C230.075 183.157 230.142 182.954 230.21 182.75C230.386 182.255 230.531 181.75 230.647 181.237C230.862 180.028 230.974 178.802 230.984 177.574L230.993 177.274C231.054 176.08 231.04 174.883 230.949 173.691C230.665 171.394 230.237 169.118 229.666 166.875C229.492 166.125 229.32 165.382 229.161 164.65C229.133 164.52 229.157 164.385 229.229 164.273C229.301 164.162 229.414 164.083 229.544 164.055C229.674 164.027 229.809 164.051 229.921 164.123C230.032 164.195 230.111 164.308 230.139 164.438C230.296 165.165 230.468 165.904 230.641 166.649C231.222 168.933 231.657 171.252 231.944 173.592C232.039 174.826 232.056 176.066 231.993 177.302L231.983 177.604C231.972 178.889 231.853 180.172 231.628 181.437C231.505 181.988 231.349 182.532 231.16 183.064C231.094 183.264 231.028 183.461 230.967 183.658C230.927 183.784 230.892 183.916 230.857 184.05C230.754 184.545 230.56 185.016 230.285 185.44C230.239 185.503 230.178 185.554 230.108 185.59C230.038 185.625 229.96 185.643 229.882 185.643ZM239.822 183.458C239.779 183.458 239.736 183.452 239.694 183.441C239.566 183.407 239.457 183.324 239.39 183.21C239.323 183.095 239.304 182.959 239.338 182.831C240.039 180.232 240.285 177.53 240.063 174.847C239.634 171.525 238.786 168.27 237.539 165.161L237.129 163.992C237.107 163.93 237.098 163.864 237.102 163.799C237.106 163.733 237.123 163.669 237.151 163.61C237.18 163.551 237.22 163.498 237.269 163.454C237.318 163.411 237.375 163.377 237.438 163.355C237.5 163.334 237.565 163.325 237.631 163.329C237.696 163.333 237.761 163.349 237.82 163.378C237.879 163.407 237.932 163.447 237.975 163.496C238.019 163.545 238.052 163.602 238.074 163.664L238.482 164.829C239.753 168.018 240.619 171.354 241.059 174.759C241.291 177.557 241.036 180.374 240.305 183.085C240.277 183.192 240.214 183.286 240.127 183.354C240.04 183.421 239.932 183.458 239.822 183.458ZM222.746 261.111C222.621 261.111 222.5 261.064 222.408 260.979C222.316 260.894 222.259 260.778 222.248 260.653C222.238 260.528 222.275 260.403 222.351 260.304C222.428 260.205 222.539 260.139 222.663 260.118L296.944 247.616C297.598 247.505 298.181 247.14 298.565 246.6C298.95 246.06 299.104 245.39 298.995 244.736L285.791 166.243C285.68 165.59 285.315 165.007 284.775 164.622C284.235 164.238 283.565 164.084 282.911 164.193L246.899 170.255C246.834 170.267 246.767 170.266 246.702 170.252C246.637 170.238 246.576 170.211 246.522 170.173C246.467 170.135 246.421 170.086 246.386 170.03C246.35 169.974 246.326 169.912 246.315 169.846C246.304 169.781 246.306 169.714 246.321 169.649C246.337 169.585 246.364 169.524 246.403 169.47C246.442 169.416 246.491 169.371 246.548 169.336C246.605 169.302 246.667 169.279 246.733 169.269L282.744 163.206C283.659 163.053 284.598 163.27 285.354 163.808C286.11 164.346 286.622 165.162 286.777 166.077L299.981 244.57C300.135 245.485 299.919 246.424 299.381 247.181C298.843 247.937 298.026 248.449 297.111 248.603L222.829 261.104C222.802 261.109 222.774 261.111 222.746 261.111ZM168.386 183.46C168.262 183.459 168.142 183.411 168.051 183.326C167.96 183.241 167.904 183.126 167.894 183.002C167.883 182.878 167.919 182.754 167.995 182.656C168.071 182.557 168.181 182.49 168.303 182.468L212.323 175.058C212.454 175.036 212.588 175.067 212.696 175.144C212.804 175.221 212.878 175.338 212.9 175.469C212.922 175.599 212.891 175.734 212.814 175.842C212.737 175.95 212.62 176.023 212.489 176.045L168.469 183.455C168.442 183.459 168.414 183.46 168.386 183.46Z" fill="white"/>
<path d="M473.406 207.21H293.106C292.973 207.21 292.846 207.157 292.752 207.064C292.659 206.97 292.606 206.843 292.606 206.71C292.606 206.577 292.659 206.45 292.752 206.356C292.846 206.263 292.973 206.21 293.106 206.21H473.406C474.334 206.209 475.224 205.84 475.88 205.184C476.536 204.528 476.905 203.638 476.906 202.71V30.55C476.905 29.6221 476.536 28.7324 475.88 28.0763C475.224 27.4202 474.334 27.0511 473.406 27.05H111.006C110.078 27.0511 109.188 27.4202 108.532 28.0763C107.876 28.7324 107.507 29.6221 107.506 30.55V202.71C107.507 203.638 107.876 204.528 108.532 205.184C109.188 205.84 110.078 206.209 111.006 206.21H124.636C124.769 206.21 124.896 206.263 124.99 206.356C125.083 206.45 125.136 206.577 125.136 206.71C125.136 206.843 125.083 206.97 124.99 207.064C124.896 207.157 124.769 207.21 124.636 207.21H111.006C109.813 207.209 108.669 206.734 107.825 205.891C106.982 205.047 106.507 203.903 106.506 202.71V30.55C106.507 29.3569 106.982 28.2131 107.825 27.3695C108.669 26.5259 109.813 26.0513 111.006 26.05H473.406C474.599 26.0513 475.743 26.5259 476.586 27.3695C477.43 28.2131 477.905 29.3569 477.906 30.55V202.71C477.905 203.903 477.43 205.047 476.586 205.891C475.743 206.734 474.599 207.209 473.406 207.21Z" fill="black"/>
<path d="M433.563 169.042H339.283C337.074 169.042 335.283 170.833 335.283 173.042V246.647C335.283 248.856 337.074 250.647 339.283 250.647H433.563C435.772 250.647 437.563 248.856 437.563 246.647V173.042C437.563 170.833 435.772 169.042 433.563 169.042Z" fill="white"/>
<path d="M371.91 275H299.09C297.383 275 296 276.295 296 277.892V331.108C296 332.705 297.383 334 299.09 334H371.91C373.617 334 375 332.705 375 331.108V277.892C375 276.295 373.617 275 371.91 275Z" fill="white"/>
<path d="M321.166 133.021H316.166C316.033 133.021 315.906 132.968 315.812 132.875C315.719 132.781 315.666 132.654 315.666 132.521C315.666 132.388 315.719 132.261 315.812 132.167C315.906 132.074 316.033 132.021 316.166 132.021H321.166C321.299 132.021 321.426 132.074 321.52 132.167C321.613 132.261 321.666 132.388 321.666 132.521C321.666 132.654 321.613 132.781 321.52 132.875C321.426 132.968 321.299 133.021 321.166 133.021ZM311.166 133.021H306.166C306.033 133.021 305.906 132.968 305.812 132.875C305.719 132.781 305.666 132.654 305.666 132.521C305.666 132.388 305.719 132.261 305.812 132.167C305.906 132.074 306.033 132.021 306.166 132.021H311.166C311.299 132.021 311.426 132.074 311.52 132.167C311.613 132.261 311.666 132.388 311.666 132.521C311.666 132.654 311.613 132.781 311.52 132.875C311.426 132.968 311.299 133.021 311.166 133.021ZM301.166 133.021H296.166C296.033 133.021 295.906 132.968 295.812 132.875C295.719 132.781 295.666 132.654 295.666 132.521C295.666 132.388 295.719 132.261 295.812 132.167C295.906 132.074 296.033 132.021 296.166 132.021H301.166C301.299 132.021 301.426 132.074 301.52 132.167C301.613 132.261 301.666 132.388 301.666 132.521C301.666 132.654 301.613 132.781 301.52 132.875C301.426 132.968 301.299 133.021 301.166 133.021ZM291.166 133.021H286.166C286.033 133.021 285.906 132.968 285.812 132.875C285.719 132.781 285.666 132.654 285.666 132.521C285.666 132.388 285.719 132.261 285.812 132.167C285.906 132.074 286.033 132.021 286.166 132.021H291.166C291.299 132.021 291.426 132.074 291.52 132.167C291.613 132.261 291.666 132.388 291.666 132.521C291.666 132.654 291.613 132.781 291.52 132.875C291.426 132.968 291.299 133.021 291.166 133.021ZM281.166 133.021H276.166C276.033 133.021 275.906 132.968 275.812 132.875C275.719 132.781 275.666 132.654 275.666 132.521C275.666 132.388 275.719 132.261 275.812 132.167C275.906 132.074 276.033 132.021 276.166 132.021H281.166C281.299 132.021 281.426 132.074 281.52 132.167C281.613 132.261 281.666 132.388 281.666 132.521C281.666 132.654 281.613 132.781 281.52 132.875C281.426 132.968 281.299 133.021 281.166 133.021ZM271.166 133.021H266.166C266.033 133.021 265.906 132.968 265.812 132.875C265.719 132.781 265.666 132.654 265.666 132.521C265.666 132.388 265.719 132.261 265.812 132.167C265.906 132.074 266.033 132.021 266.166 132.021H271.166C271.299 132.021 271.426 132.074 271.52 132.167C271.613 132.261 271.666 132.388 271.666 132.521C271.666 132.654 271.613 132.781 271.52 132.875C271.426 132.968 271.299 133.021 271.166 133.021ZM261.166 133.021H256.166C256.033 133.021 255.906 132.968 255.812 132.875C255.719 132.781 255.666 132.654 255.666 132.521C255.666 132.388 255.719 132.261 255.812 132.167C255.906 132.074 256.033 132.021 256.166 132.021H261.166C261.299 132.021 261.426 132.074 261.52 132.167C261.613 132.261 261.666 132.388 261.666 132.521C261.666 132.654 261.613 132.781 261.52 132.875C261.426 132.968 261.299 133.021 261.166 133.021ZM251.166 133.021H246.166C246.033 133.021 245.906 132.968 245.812 132.875C245.719 132.781 245.666 132.654 245.666 132.521C245.666 132.388 245.719 132.261 245.812 132.167C245.906 132.074 246.033 132.021 246.166 132.021H251.166C251.299 132.021 251.426 132.074 251.52 132.167C251.613 132.261 251.666 132.388 251.666 132.521C251.666 132.654 251.613 132.781 251.52 132.875C251.426 132.968 251.299 133.021 251.166 133.021ZM241.166 133.021H236.166C236.033 133.021 235.906 132.968 235.812 132.875C235.719 132.781 235.666 132.654 235.666 132.521C235.666 132.388 235.719 132.261 235.812 132.167C235.906 132.074 236.033 132.021 236.166 132.021H241.166C241.299 132.021 241.426 132.074 241.52 132.167C241.613 132.261 241.666 132.388 241.666 132.521C241.666 132.654 241.613 132.781 241.52 132.875C241.426 132.968 241.299 133.021 241.166 133.021ZM231.166 133.021H226.166C226.033 133.021 225.906 132.968 225.812 132.875C225.719 132.781 225.666 132.654 225.666 132.521C225.666 132.388 225.719 132.261 225.812 132.167C225.906 132.074 226.033 132.021 226.166 132.021H231.166C231.299 132.021 231.426 132.074 231.52 132.167C231.613 132.261 231.666 132.388 231.666 132.521C231.666 132.654 231.613 132.781 231.52 132.875C231.426 132.968 231.299 133.021 231.166 133.021ZM221.166 133.021H216.166C216.033 133.021 215.906 132.968 215.812 132.875C215.719 132.781 215.666 132.654 215.666 132.521C215.666 132.388 215.719 132.261 215.812 132.167C215.906 132.074 216.033 132.021 216.166 132.021H221.166C221.299 132.021 221.426 132.074 221.52 132.167C221.613 132.261 221.666 132.388 221.666 132.521C221.666 132.654 221.613 132.781 221.52 132.875C221.426 132.968 221.299 133.021 221.166 133.021ZM211.166 133.021H206.166C206.033 133.021 205.906 132.968 205.812 132.875C205.719 132.781 205.666 132.654 205.666 132.521C205.666 132.388 205.719 132.261 205.812 132.167C205.906 132.074 206.033 132.021 206.166 132.021H211.166C211.299 132.021 211.426 132.074 211.52 132.167C211.613 132.261 211.666 132.388 211.666 132.521C211.666 132.654 211.613 132.781 211.52 132.875C211.426 132.968 211.299 133.021 211.166 133.021ZM322.331 132.85C322.211 132.85 322.094 132.807 322.003 132.729C321.912 132.651 321.852 132.542 321.835 132.423C321.817 132.304 321.843 132.183 321.907 132.082C321.972 131.98 322.071 131.905 322.186 131.871C322.89 131.658 323.508 131.228 323.953 130.643C324.398 130.058 324.647 129.347 324.665 128.612C324.668 128.482 324.723 128.358 324.816 128.267C324.909 128.176 325.035 128.125 325.165 128.125H325.178C325.244 128.127 325.308 128.141 325.368 128.168C325.428 128.195 325.483 128.233 325.528 128.281C325.573 128.328 325.608 128.384 325.632 128.446C325.656 128.507 325.667 128.572 325.665 128.638C325.642 129.583 325.321 130.497 324.749 131.249C324.177 132.001 323.382 132.554 322.477 132.828C322.43 132.842 322.38 132.85 322.331 132.85ZM201.188 132.82C201.135 132.82 201.082 132.811 201.031 132.794C200.133 132.498 199.351 131.926 198.798 131.16C198.244 130.394 197.946 129.472 197.946 128.527C197.946 128.394 197.999 128.267 198.092 128.173C198.186 128.08 198.313 128.027 198.446 128.027C198.578 128.027 198.705 128.079 198.799 128.173C198.893 128.266 198.945 128.393 198.946 128.525C198.945 129.261 199.177 129.978 199.608 130.574C200.039 131.17 200.647 131.615 201.346 131.845C201.458 131.883 201.554 131.959 201.615 132.061C201.676 132.162 201.699 132.282 201.68 132.399C201.661 132.516 201.602 132.623 201.511 132.699C201.421 132.776 201.307 132.819 201.188 132.819V132.82ZM325.166 124.125C325.033 124.125 324.906 124.072 324.812 123.979C324.719 123.885 324.666 123.758 324.666 123.625V118.625C324.666 118.492 324.719 118.365 324.812 118.271C324.906 118.178 325.033 118.125 325.166 118.125C325.299 118.125 325.426 118.178 325.52 118.271C325.613 118.365 325.666 118.492 325.666 118.625V123.625C325.666 123.758 325.613 123.885 325.52 123.979C325.426 124.072 325.299 124.125 325.166 124.125ZM198.446 124.027C198.313 124.027 198.186 123.974 198.092 123.881C197.999 123.787 197.946 123.66 197.946 123.527V118.527C197.946 118.394 197.999 118.267 198.092 118.173C198.186 118.08 198.313 118.027 198.446 118.027C198.579 118.027 198.706 118.08 198.8 118.173C198.893 118.267 198.946 118.394 198.946 118.527V123.527C198.946 123.66 198.893 123.787 198.8 123.881C198.706 123.974 198.579 124.027 198.446 124.027ZM325.166 114.125C325.033 114.125 324.906 114.072 324.812 113.979C324.719 113.885 324.666 113.758 324.666 113.625V108.625C324.666 108.492 324.719 108.365 324.812 108.271C324.906 108.178 325.033 108.125 325.166 108.125C325.299 108.125 325.426 108.178 325.52 108.271C325.613 108.365 325.666 108.492 325.666 108.625V113.625C325.666 113.758 325.613 113.885 325.52 113.979C325.426 114.072 325.299 114.125 325.166 114.125ZM198.446 114.027C198.313 114.027 198.186 113.974 198.092 113.881C197.999 113.787 197.946 113.66 197.946 113.527V108.527C197.946 108.394 197.999 108.267 198.092 108.173C198.186 108.08 198.313 108.027 198.446 108.027C198.579 108.027 198.706 108.08 198.8 108.173C198.893 108.267 198.946 108.394 198.946 108.527V113.527C198.946 113.66 198.893 113.787 198.8 113.881C198.706 113.974 198.579 114.027 198.446 114.027ZM325.166 104.125C325.033 104.125 324.906 104.072 324.812 103.979C324.719 103.885 324.666 103.758 324.666 103.625V98.625C324.666 98.4924 324.719 98.3652 324.812 98.2714C324.906 98.1777 325.033 98.125 325.166 98.125C325.299 98.125 325.426 98.1777 325.52 98.2714C325.613 98.3652 325.666 98.4924 325.666 98.625V103.625C325.666 103.758 325.613 103.885 325.52 103.979C325.426 104.072 325.299 104.125 325.166 104.125ZM198.446 104.027C198.313 104.027 198.186 103.974 198.092 103.881C197.999 103.787 197.946 103.66 197.946 103.527V98.527C197.946 98.3944 197.999 98.2672 198.092 98.1734C198.186 98.0797 198.313 98.027 198.446 98.027C198.579 98.027 198.706 98.0797 198.8 98.1734C198.893 98.2672 198.946 98.3944 198.946 98.527V103.527C198.946 103.66 198.893 103.787 198.8 103.881C198.706 103.974 198.579 104.027 198.446 104.027ZM325.166 94.125C325.033 94.125 324.906 94.0723 324.812 93.9786C324.719 93.8848 324.666 93.7576 324.666 93.625V88.625C324.666 88.4924 324.719 88.3652 324.812 88.2714C324.906 88.1777 325.033 88.125 325.166 88.125C325.299 88.125 325.426 88.1777 325.52 88.2714C325.613 88.3652 325.666 88.4924 325.666 88.625V93.625C325.666 93.7576 325.613 93.8848 325.52 93.9786C325.426 94.0723 325.299 94.125 325.166 94.125ZM198.446 94.027C198.313 94.027 198.186 93.9743 198.092 93.8806C197.999 93.7868 197.946 93.6596 197.946 93.527V88.527C197.946 88.3944 197.999 88.2672 198.092 88.1734C198.186 88.0797 198.313 88.027 198.446 88.027C198.579 88.027 198.706 88.0797 198.8 88.1734C198.893 88.2672 198.946 88.3944 198.946 88.527V93.527C198.946 93.6596 198.893 93.7868 198.8 93.8806C198.706 93.9743 198.579 94.027 198.446 94.027ZM325.166 84.125C325.033 84.125 324.906 84.0723 324.812 83.9786C324.719 83.8848 324.666 83.7576 324.666 83.625V78.625C324.666 78.4924 324.719 78.3652 324.812 78.2714C324.906 78.1777 325.033 78.125 325.166 78.125C325.299 78.125 325.426 78.1777 325.52 78.2714C325.613 78.3652 325.666 78.4924 325.666 78.625V83.625C325.666 83.7576 325.613 83.8848 325.52 83.9786C325.426 84.0723 325.299 84.125 325.166 84.125ZM198.446 84.027C198.313 84.027 198.186 83.9743 198.092 83.8806C197.999 83.7868 197.946 83.6596 197.946 83.527V78.527C197.946 78.3944 197.999 78.2672 198.092 78.1734C198.186 78.0797 198.313 78.027 198.446 78.027C198.579 78.027 198.706 78.0797 198.8 78.1734C198.893 78.2672 198.946 78.3944 198.946 78.527V83.527C198.946 83.6596 198.893 83.7868 198.8 83.8806C198.706 83.9743 198.579 84.027 198.446 84.027ZM325.166 74.125C325.033 74.125 324.906 74.0723 324.812 73.9786C324.719 73.8848 324.666 73.7576 324.666 73.625V71.722C324.668 70.807 324.31 69.9279 323.669 69.275C323.622 69.2283 323.585 69.1727 323.56 69.1115C323.534 69.0503 323.522 68.9846 323.522 68.9184C323.522 68.8522 323.536 68.7867 323.562 68.7257C323.587 68.6648 323.625 68.6095 323.672 68.5633C323.72 68.517 323.776 68.4805 323.837 68.4561C323.899 68.4317 323.965 68.4197 324.031 68.4209C324.097 68.422 324.162 68.4364 324.223 68.463C324.284 68.4896 324.338 68.528 324.384 68.576C325.209 69.4151 325.669 70.5455 325.666 71.722V73.625C325.666 73.7576 325.613 73.8848 325.52 73.9786C325.426 74.0723 325.299 74.125 325.166 74.125ZM198.446 74.027C198.313 74.027 198.186 73.9743 198.092 73.8806C197.999 73.7868 197.946 73.6596 197.946 73.527V71.722C197.944 71.1209 198.064 70.5256 198.297 69.9718C198.531 69.418 198.874 68.917 199.306 68.499C199.401 68.4081 199.529 68.3586 199.66 68.3611C199.792 68.3636 199.918 68.418 200.009 68.5125C200.101 68.607 200.152 68.7338 200.151 68.8656C200.15 68.9973 200.097 69.1232 200.003 69.216C199.667 69.541 199.4 69.9305 199.219 70.3611C199.037 70.7918 198.944 71.2546 198.946 71.722V73.527C198.946 73.6596 198.893 73.7868 198.8 73.8806C198.706 73.9743 198.579 74.027 198.446 74.027ZM319.354 68.222H314.354C314.221 68.222 314.094 68.1693 314 68.0756C313.907 67.9818 313.854 67.8546 313.854 67.722C313.854 67.5894 313.907 67.4622 314 67.3684C314.094 67.2747 314.221 67.222 314.354 67.222H319.354C319.487 67.222 319.614 67.2747 319.708 67.3684C319.801 67.4622 319.854 67.5894 319.854 67.722C319.854 67.8546 319.801 67.9818 319.708 68.0756C319.614 68.1693 319.487 68.222 319.354 68.222ZM309.354 68.222H304.354C304.221 68.222 304.094 68.1693 304 68.0756C303.907 67.9818 303.854 67.8546 303.854 67.722C303.854 67.5894 303.907 67.4622 304 67.3684C304.094 67.2747 304.221 67.222 304.354 67.222H309.354C309.487 67.222 309.614 67.2747 309.708 67.3684C309.801 67.4622 309.854 67.5894 309.854 67.722C309.854 67.8546 309.801 67.9818 309.708 68.0756C309.614 68.1693 309.487 68.222 309.354 68.222ZM299.354 68.222H294.354C294.221 68.222 294.094 68.1693 294 68.0756C293.907 67.9818 293.854 67.8546 293.854 67.722C293.854 67.5894 293.907 67.4622 294 67.3684C294.094 67.2747 294.221 67.222 294.354 67.222H299.354C299.487 67.222 299.614 67.2747 299.708 67.3684C299.801 67.4622 299.854 67.5894 299.854 67.722C299.854 67.8546 299.801 67.9818 299.708 68.0756C299.614 68.1693 299.487 68.222 299.354 68.222ZM289.354 68.222H284.354C284.221 68.222 284.094 68.1693 284 68.0756C283.907 67.9818 283.854 67.8546 283.854 67.722C283.854 67.5894 283.907 67.4622 284 67.3684C284.094 67.2747 284.221 67.222 284.354 67.222H289.354C289.487 67.222 289.614 67.2747 289.708 67.3684C289.801 67.4622 289.854 67.5894 289.854 67.722C289.854 67.8546 289.801 67.9818 289.708 68.0756C289.614 68.1693 289.487 68.222 289.354 68.222ZM279.354 68.222H274.354C274.221 68.222 274.094 68.1693 274 68.0756C273.907 67.9818 273.854 67.8546 273.854 67.722C273.854 67.5894 273.907 67.4622 274 67.3684C274.094 67.2747 274.221 67.222 274.354 67.222H279.354C279.487 67.222 279.614 67.2747 279.708 67.3684C279.801 67.4622 279.854 67.5894 279.854 67.722C279.854 67.8546 279.801 67.9818 279.708 68.0756C279.614 68.1693 279.487 68.222 279.354 68.222ZM269.354 68.222H264.354C264.221 68.222 264.094 68.1693 264 68.0756C263.907 67.9818 263.854 67.8546 263.854 67.722C263.854 67.5894 263.907 67.4622 264 67.3684C264.094 67.2747 264.221 67.222 264.354 67.222H269.354C269.487 67.222 269.614 67.2747 269.708 67.3684C269.801 67.4622 269.854 67.5894 269.854 67.722C269.854 67.8546 269.801 67.9818 269.708 68.0756C269.614 68.1693 269.487 68.222 269.354 68.222ZM259.354 68.222H254.355C254.222 68.222 254.095 68.1693 254.001 68.0756C253.908 67.9818 253.855 67.8546 253.855 67.722C253.855 67.5894 253.908 67.4622 254.001 67.3684C254.095 67.2747 254.222 67.222 254.355 67.222H259.355C259.488 67.222 259.615 67.2747 259.709 67.3684C259.802 67.4622 259.855 67.5894 259.855 67.722C259.855 67.8546 259.802 67.9818 259.709 68.0756C259.615 68.1693 259.488 68.222 259.355 68.222H259.354ZM249.355 68.222H244.355C244.222 68.222 244.095 68.1693 244.001 68.0756C243.908 67.9818 243.855 67.8546 243.855 67.722C243.855 67.5894 243.908 67.4622 244.001 67.3684C244.095 67.2747 244.222 67.222 244.355 67.222H249.355C249.488 67.222 249.615 67.2747 249.709 67.3684C249.802 67.4622 249.855 67.5894 249.855 67.722C249.855 67.8546 249.802 67.9818 249.709 68.0756C249.615 68.1693 249.488 68.222 249.355 68.222ZM239.355 68.222H234.355C234.222 68.222 234.095 68.1693 234.001 68.0756C233.908 67.9818 233.855 67.8546 233.855 67.722C233.855 67.5894 233.908 67.4622 234.001 67.3684C234.095 67.2747 234.222 67.222 234.355 67.222H239.355C239.488 67.222 239.615 67.2747 239.709 67.3684C239.802 67.4622 239.855 67.5894 239.855 67.722C239.855 67.8546 239.802 67.9818 239.709 68.0756C239.615 68.1693 239.488 68.222 239.355 68.222ZM229.355 68.222H224.355C224.222 68.222 224.095 68.1693 224.001 68.0756C223.908 67.9818 223.855 67.8546 223.855 67.722C223.855 67.5894 223.908 67.4622 224.001 67.3684C224.095 67.2747 224.222 67.222 224.355 67.222H229.355C229.488 67.222 229.615 67.2747 229.709 67.3684C229.802 67.4622 229.855 67.5894 229.855 67.722C229.855 67.8546 229.802 67.9818 229.709 68.0756C229.615 68.1693 229.488 68.222 229.355 68.222ZM219.355 68.222H214.355C214.222 68.222 214.095 68.1693 214.001 68.0756C213.908 67.9818 213.855 67.8546 213.855 67.722C213.855 67.5894 213.908 67.4622 214.001 67.3684C214.095 67.2747 214.222 67.222 214.355 67.222H219.355C219.488 67.222 219.615 67.2747 219.709 67.3684C219.802 67.4622 219.855 67.5894 219.855 67.722C219.855 67.8546 219.802 67.9818 219.709 68.0756C219.615 68.1693 219.488 68.222 219.355 68.222ZM209.355 68.222H204.355C204.222 68.222 204.095 68.1693 204.001 68.0756C203.908 67.9818 203.855 67.8546 203.855 67.722C203.855 67.5894 203.908 67.4622 204.001 67.3684C204.095 67.2747 204.222 67.222 204.355 67.222H209.355C209.488 67.222 209.615 67.2747 209.709 67.3684C209.802 67.4622 209.855 67.5894 209.855 67.722C209.855 67.8546 209.802 67.9818 209.709 68.0756C209.615 68.1693 209.488 68.222 209.355 68.222ZM370.522 334.021H300.043C298.85 334.02 297.706 333.545 296.862 332.701C296.019 331.858 295.544 330.714 295.543 329.521V279.921C295.544 278.728 296.019 277.584 296.862 276.74C297.706 275.897 298.85 275.422 300.043 275.421H370.523C371.716 275.422 372.86 275.897 373.704 276.74C374.547 277.584 375.022 278.728 375.023 279.921V329.521C375.022 330.714 374.547 331.858 373.704 332.701C372.86 333.545 371.716 334.02 370.523 334.021H370.522ZM300.043 276.421C299.115 276.422 298.225 276.791 297.569 277.447C296.913 278.103 296.544 278.993 296.543 279.921V329.521C296.544 330.449 296.913 331.339 297.569 331.995C298.225 332.651 299.115 333.02 300.043 333.021H370.523C371.451 333.02 372.341 332.651 372.997 331.995C373.653 331.339 374.022 330.449 374.023 329.521V279.921C374.022 278.993 373.653 278.103 372.997 277.447C372.341 276.791 371.451 276.422 370.523 276.421H300.043Z" fill="black"/>
<path d="M441.787 68.04H390.423C388.214 68.04 386.423 69.8309 386.423 72.04V107.61C386.423 109.819 388.214 111.61 390.423 111.61H441.787C443.996 111.61 445.787 109.819 445.787 107.61V72.04C445.787 69.8309 443.996 68.04 441.787 68.04Z" fill="white"/>
<path d="M119.246 41.28C121.483 41.28 123.296 39.4668 123.296 37.23C123.296 34.9932 121.483 33.18 119.246 33.18C117.009 33.18 115.196 34.9932 115.196 37.23C115.196 39.4668 117.009 41.28 119.246 41.28Z" fill="#674CFB"/>
<path d="M134.366 41.28C136.603 41.28 138.416 39.4668 138.416 37.23C138.416 34.9932 136.603 33.18 134.366 33.18C132.129 33.18 130.316 34.9932 130.316 37.23C130.316 39.4668 132.129 41.28 134.366 41.28Z" fill="#2CA68F"/>
<path d="M149.486 41.28C151.723 41.28 153.536 39.4668 153.536 37.23C153.536 34.9932 151.723 33.18 149.486 33.18C147.249 33.18 145.436 34.9932 145.436 37.23C145.436 39.4668 147.249 41.28 149.486 41.28Z" fill="#FD6F41"/>
<path d="M445.786 121.774H360.006C359.873 121.774 359.746 121.721 359.652 121.628C359.559 121.534 359.506 121.407 359.506 121.274C359.506 121.141 359.559 121.014 359.652 120.92C359.746 120.827 359.873 120.774 360.006 120.774H445.786C445.919 120.774 446.046 120.827 446.14 120.92C446.233 121.014 446.286 121.141 446.286 121.274C446.286 121.407 446.233 121.534 446.14 121.628C446.046 121.721 445.919 121.774 445.786 121.774ZM445.786 133.021H340.006C339.873 133.021 339.746 132.968 339.652 132.875C339.559 132.781 339.506 132.654 339.506 132.521C339.506 132.388 339.559 132.261 339.652 132.167C339.746 132.074 339.873 132.021 340.006 132.021H445.786C445.919 132.021 446.046 132.074 446.14 132.167C446.233 132.261 446.286 132.388 446.286 132.521C446.286 132.654 446.233 132.781 446.14 132.875C446.046 132.968 445.919 133.021 445.786 133.021ZM445.786 144.268H350.006C349.873 144.268 349.746 144.215 349.652 144.122C349.559 144.028 349.506 143.901 349.506 143.768C349.506 143.635 349.559 143.508 349.652 143.414C349.746 143.321 349.873 143.268 350.006 143.268H445.786C445.919 143.268 446.046 143.321 446.14 143.414C446.233 143.508 446.286 143.635 446.286 143.768C446.286 143.901 446.233 144.028 446.14 144.122C446.046 144.215 445.919 144.268 445.786 144.268ZM152.426 223.345L157.006 245.991H164.166C164.166 245.991 152.252 228.418 152.426 223.345ZM440.437 105.925C440.341 105.925 440.247 105.897 440.167 105.845L391.503 74.645C391.444 74.6112 391.393 74.5659 391.353 74.5118C391.312 74.4577 391.283 74.3959 391.267 74.3302C391.251 74.2644 391.248 74.1962 391.26 74.1295C391.271 74.0628 391.295 73.999 391.332 73.9421C391.368 73.8851 391.416 73.8362 391.472 73.7982C391.528 73.7602 391.591 73.7339 391.657 73.721C391.724 73.7081 391.792 73.7088 391.858 73.7231C391.924 73.7374 391.987 73.7649 392.042 73.804L416.374 89.404L440.706 105.004C440.797 105.063 440.866 105.149 440.903 105.25C440.941 105.351 440.945 105.461 440.914 105.565C440.884 105.668 440.821 105.759 440.735 105.824C440.649 105.889 440.544 105.924 440.436 105.924L440.437 105.925Z" fill="#9C0404"/>
<path d="M391.772 105.925C391.664 105.925 391.559 105.89 391.472 105.825C391.386 105.76 391.322 105.669 391.292 105.566C391.262 105.462 391.266 105.351 391.303 105.25C391.341 105.149 391.411 105.062 391.502 105.004L440.167 73.804C440.279 73.7324 440.414 73.7081 440.544 73.7364C440.673 73.7647 440.786 73.8433 440.858 73.955C440.93 74.0667 440.954 74.2022 440.926 74.3318C440.897 74.4614 440.819 74.5744 440.707 74.646L392.042 105.846C391.962 105.898 391.868 105.925 391.772 105.925ZM368.628 326.6C368.532 326.6 368.438 326.573 368.358 326.521L301.668 283.764C301.613 283.729 301.565 283.683 301.527 283.629C301.49 283.575 301.463 283.514 301.449 283.45C301.435 283.386 301.434 283.319 301.446 283.255C301.457 283.19 301.482 283.128 301.517 283.073C301.552 283.018 301.598 282.97 301.652 282.932C301.706 282.895 301.767 282.868 301.831 282.854C301.895 282.84 301.962 282.839 302.026 282.851C302.091 282.862 302.153 282.887 302.208 282.922L368.898 325.68C368.989 325.738 369.058 325.825 369.095 325.926C369.133 326.027 369.137 326.137 369.106 326.241C369.076 326.344 369.013 326.435 368.927 326.5C368.841 326.565 368.736 326.6 368.628 326.6Z" fill="#9C0404"/>
<path d="M301.938 326.6C301.83 326.6 301.725 326.565 301.639 326.5C301.553 326.435 301.49 326.344 301.46 326.241C301.429 326.137 301.433 326.027 301.471 325.926C301.508 325.825 301.577 325.738 301.668 325.68L368.358 282.922C368.47 282.85 368.605 282.826 368.735 282.854C368.864 282.883 368.977 282.961 369.049 283.073C369.121 283.185 369.145 283.32 369.117 283.45C369.088 283.579 369.01 283.692 368.898 283.764L302.207 326.521C302.127 326.573 302.033 326.601 301.937 326.601L301.938 326.6Z" fill="black"/>
<path d="M350.33 232.683L377.188 205.825C377.376 205.638 377.63 205.532 377.895 205.532C378.16 205.532 378.414 205.638 378.602 205.825L394.708 221.931C394.896 222.118 395.15 222.224 395.415 222.224C395.68 222.224 395.934 222.118 396.122 221.931L403.348 214.705C403.536 214.518 403.79 214.412 404.055 214.412C404.32 214.412 404.574 214.518 404.762 214.705L422.515 232.459C422.655 232.599 422.75 232.776 422.788 232.97C422.827 233.164 422.808 233.364 422.732 233.547C422.657 233.729 422.53 233.886 422.366 233.996C422.202 234.106 422.009 234.165 421.812 234.166L351.04 234.39C350.842 234.391 350.648 234.332 350.483 234.223C350.319 234.113 350.19 233.957 350.114 233.774C350.038 233.591 350.018 233.39 350.056 233.196C350.095 233.001 350.19 232.823 350.33 232.683Z" fill="#9C0404"/>
<path d="M397.695 203.078C401.34 203.078 404.295 200.123 404.295 196.478C404.295 192.833 401.34 189.878 397.695 189.878C394.05 189.878 391.095 192.833 391.095 196.478C391.095 200.123 394.05 203.078 397.695 203.078Z" fill="#9C0404"/>
<path d="M180.238 327.714H235.375V333.118H180.238V327.714Z" stroke="white"/>
<path d="M34.594 179.756H90.731V186.16H34.594V179.756Z" fill="white"/>
<path d="M391.554 257.409H447.691V263.813H391.554V257.409Z" fill="#FD6F41"/>
<path d="M251.84 285.778C250.932 285.778 250.044 285.509 249.289 285.004C248.534 284.5 247.945 283.782 247.598 282.943C247.25 282.104 247.159 281.181 247.336 280.29C247.513 279.399 247.951 278.581 248.593 277.939C249.235 277.297 250.053 276.859 250.944 276.682C251.835 276.505 252.758 276.596 253.597 276.944C254.436 277.291 255.154 277.88 255.658 278.635C256.163 279.39 256.432 280.278 256.432 281.186C256.43 282.404 255.946 283.571 255.085 284.432C254.224 285.292 253.058 285.777 251.84 285.778ZM251.84 277.594C251.13 277.594 250.435 277.805 249.844 278.199C249.254 278.594 248.793 279.155 248.521 279.811C248.25 280.468 248.178 281.19 248.317 281.887C248.456 282.584 248.798 283.224 249.3 283.726C249.802 284.228 250.442 284.57 251.139 284.709C251.836 284.848 252.558 284.776 253.215 284.505C253.871 284.233 254.432 283.772 254.827 283.182C255.221 282.591 255.432 281.896 255.432 281.186C255.431 280.233 255.052 279.32 254.378 278.647C253.705 277.973 252.792 277.595 251.84 277.594ZM340.006 116.201C339.098 116.201 338.21 115.931 337.455 115.427C336.7 114.922 336.112 114.205 335.764 113.366C335.417 112.526 335.326 111.603 335.503 110.713C335.681 109.822 336.118 109.004 336.76 108.362C337.403 107.72 338.221 107.282 339.112 107.105C340.002 106.928 340.925 107.019 341.765 107.367C342.604 107.714 343.321 108.303 343.825 109.058C344.33 109.813 344.599 110.701 344.599 111.609C344.598 112.827 344.113 113.994 343.252 114.855C342.391 115.716 341.224 116.2 340.006 116.201ZM340.006 108.017C339.296 108.017 338.601 108.228 338.011 108.623C337.42 109.018 336.96 109.579 336.688 110.235C336.416 110.891 336.345 111.614 336.484 112.31C336.623 113.007 336.965 113.647 337.467 114.149C337.97 114.652 338.61 114.994 339.307 115.132C340.003 115.271 340.726 115.199 341.382 114.927C342.038 114.656 342.599 114.195 342.994 113.605C343.388 113.014 343.599 112.319 343.599 111.609C343.598 110.656 343.219 109.743 342.545 109.07C341.872 108.396 340.959 108.018 340.006 108.017Z" fill="black"/>
<path d="M87.8 270.131L80.48 268.131L85.8 261.811L87.8 270.131ZM165.204 93.397L157.884 91.397L163.204 85.077L165.204 93.397Z" fill="#674CFB"/>
</svg>
